#!OML:ASF F:\VICON\USERDATA\INSTALL\rory3\rory3.ASF
:FULLY-SPECIFIED
:DEGREES
2815
root -0.280843 16.7346 -1.33342 2.15937 19.6937 2.10103
lowerback 11.1273 0.293675 0.355259
upperback 10.4075 0.454724 3.24079
thorax 4.67641 0.178583 3.16883
lowerneck -2.12571 -6.12725 -15.8831
upperneck 1.43817 -8.72336 29.1167
head 2.95365 -4.08657 11.812
rclavicle -1.27222e-014 1.74931e-014
rhumerus -3.17341 14.4794 -93.1527
rradius 137.036
rwrist 28.2831
rhand 19.986 6.55109
rfingers 7.12502
rthumb 44.5221 -17.1343
lclavicle -1.27222e-014 1.74931e-014
lhumerus 8.73423 -16.0587 94.2113
lradius 137.706
lwrist -12.5107
lhand 22.7751 39.773
lfingers 7.12502
lthumb 47.1109 62.3902
rfemur -15.249 -5.89634 17.1492
rtibia 39.8254
rfoot -24.3974 -14.9409
rtoes -19.9373
lfemur -22.7743 -12.5612 -18.079
ltibia 37.7555
lfoot -16.2557 -10.4513
ltoes -12.8427
2816
root -0.282542 16.7366 -1.32081 2.11765 18.5411 1.83046
lowerback 11.0057 0.324555 0.00118958
upperback 10.2784 0.465827 3.06435
thorax 4.60005 0.166104 3.17966
lowerneck -1.91311 -6.17951 -16.0768
upperneck 1.36418 -8.81215 29.1291
head 2.92567 -4.15491 11.8529
rclavicle 1.98785e-015 3.18055e-015
rhumerus -3.10771 14.6868 -93.1546
rradius 136.914
rwrist 28.2557
rhand 19.9035 6.53595
rfingers 7.12502
rthumb 44.4452 -17.1789
lclavicle 1.98785e-015 3.18055e-015
lhumerus 8.24051 -15.6945 94.2871
lradius 137.735
lwrist -12.6689
lhand 22.605 39.5725
lfingers 7.12502
lthumb 46.9537 62.2591
rfemur -15.4074 -5.03738 17.46
rtibia 39.6698
rfoot -24.1956 -14.6527
rtoes -19.7007
lfemur -22.6974 -11.8985 -17.7676
ltibia 37.9386
lfoot -16.6598 -9.91538
ltoes -13.6158
2817
root -0.286538 16.7401 -1.30768 2.02633 17.3471 1.40487
lowerback 11.5089 0.265287 -0.140428
upperback 9.70123 0.388199 2.78597
thorax 3.70646 0.133912 2.95968
lowerneck -1.34035 -6.17968 -16.3155
upperneck 1.50284 -8.90901 29.1167
head 2.89083 -4.24434 11.9071
rclavicle -1.82882e-014 -3.18055e-015
rhumerus -3.8009 14.9646 -93.5759
rradius 136.865
rwrist 28.3324
rhand 19.4184 6.39189
rfingers 7.12502
rthumb 43.9929 -17.4937
lclavicle -1.82882e-014 -3.18055e-015
lhumerus 7.07493 -15.1518 94.2913
lradius 137.908
lwrist -12.7259
lhand 22.5934 39.4247
lfingers 7.12502
lthumb 46.9429 62.116
rfemur -15.533 -4.13201 17.9507
rtibia 39.4815
rfoot -24.041 -14.3946
rtoes -19.3108
lfemur -22.5932 -11.2101 -17.2813
ltibia 38.1275
lfoot -17.079 -9.3118
ltoes -14.6547
2818
root -0.291586 16.7413 -1.29781 1.86221 16.1895 0.915398
lowerback 11.2461 0.247646 -0.540759
upperback 9.73795 0.323921 2.76164
thorax 3.89167 0.0751967 3.16651
lowerneck -1.24177 -6.28432 -16.7236
upperneck 1.2693 -9.02851 29.0875
head 2.85726 -4.32999 11.9658
rclavicle 7.95139e-016 -3.89618e-014
rhumerus -3.40744 15.2837 -93.301
rradius 136.736
rwrist 28.3204
rhand 19.411 6.35526
rfingers 7.12502
rthumb 43.986 -17.5328
lclavicle 7.95139e-016 -3.89618e-014
lhumerus 6.9238 -14.7667 94.4702
lradius 138.036
lwrist -12.785
lhand 22.4612 39.5129
lfingers 7.12502
lthumb 46.8206 62.2577
rfemur -15.5592 -3.27448 18.5093
rtibia 39.2466
rfoot -23.902 -14.1393
rtoes -19.4624
lfemur -22.4117 -10.5282 -16.7383
ltibia 38.2946
lfoot -17.384 -8.89378
ltoes -15.1483
2819
root -0.292843 16.7454 -1.2804 1.58564 14.9023 0.640053
lowerback 11.1432 0.316211 -0.898314
upperback 9.77418 0.384477 2.49732
thorax 3.9822 0.0903078 3.08654
lowerneck -1.2404 -6.46573 -16.9
upperneck 1.17533 -9.28287 29.1463
head 2.90822 -4.46533 11.9989
rclavicle 3.18055e-015 6.36111e-015
rhumerus -3.1101 15.3675 -93.2237
rradius 136.697
rwrist 28.5651
rhand 19.8852 6.46808
rfingers 7.12502
rthumb 44.4281 -17.2532
lclavicle 3.18055e-015 6.36111e-015
lhumerus 6.68926 -14.7406 94.4948
lradius 138.273
lwrist -12.8232
lhand 22.3788 39.7879
lfingers 7.12502
lthumb 46.7443 62.566
rfemur -15.3319 -2.39173 18.7992
rtibia 38.9739
rfoot -23.8106 -13.8083
rtoes -19.5828
lfemur -21.9078 -9.89841 -16.4848
ltibia 38.4158
lfoot -17.7485 -8.30391
ltoes -15.5974
2820
root -0.288764 16.7515 -1.25551 1.25259 13.5519 0.449965
lowerback 10.2772 0.341688 -1.79628
upperback 10.3452 0.348515 2.55839
thorax 5.07877 -0.00668613 3.67251
lowerneck -1.52046 -6.598 -17.4335
upperneck 0.674278 -9.34112 29.0743
head 2.86219 -4.50524 12.0544
rclavicle -1.07344e-014 -1.27222e-014
rhumerus -1.93667 15.879 -92.393
rradius 136.634
rwrist 28.5951
rhand 20.5307 6.46189
rfingers 7.12502
rthumb 45.0291 -17.0262
lclavicle -1.07344e-014 -1.27222e-014
lhumerus 7.38148 -14.1328 94.7313
lradius 138.4
lwrist -12.7178
lhand 22.2787 40.0363
lfingers 7.12502
lthumb 46.6517 62.8545
rfemur -14.9549 -1.64922 18.9629
rtibia 38.6897
rfoot -23.7684 -13.3033
rtoes -19.5891
lfemur -21.2332 -9.36497 -16.3689
ltibia 38.5156
lfoot -18.3127 -7.30023
ltoes -17.1221
2821
root -0.292189 16.7549 -1.23883 0.994243 12.3342 0.147422
lowerback 10.2127 0.347267 -2.12785
upperback 10.323 0.336988 2.28706
thorax 5.09138 -0.0262454 3.57375
lowerneck -1.4125 -6.74111 -17.5713
upperneck 0.454336 -9.52748 29.1059
head 2.839 -4.61923 12.0771
rclavicle -1.35174e-014 3.97569e-014
rhumerus -1.76805 15.9519 -92.3298
rradius 136.635
rwrist 28.6847
rhand 20.582 6.60671
rfingers 7.12502
rthumb 45.0769 -16.8625
lclavicle -1.35174e-014 3.97569e-014
lhumerus 7.36669 -13.8346 94.6343
lradius 138.523
lwrist -12.4511
lhand 22.2444 40.3096
lfingers 7.12502
lthumb 46.6199 63.1415
rfemur -14.7093 -0.98542 19.3018
rtibia 38.4109
rfoot -23.6532 -12.8734
rtoes -20.0449
lfemur -20.7231 -8.89428 -16.072
ltibia 38.6054
lfoot -18.8044 -6.28094
ltoes -19.1262
2822
root -0.299732 16.7559 -1.22666 0.86314 11.1345 -0.276104
lowerback 10.9558 0.339563 -1.99748
upperback 9.62418 0.329385 1.74428
thorax 3.92684 0.0195147 2.91876
lowerneck -0.99948 -6.88658 -17.5224
upperneck 0.707521 -9.85927 29.2516
head 2.92254 -4.80555 12.1098
rclavicle -2.38542e-014 1.90833e-014
rhumerus -2.60298 15.7642 -92.9641
rradius 136.684
rwrist 28.7901
rhand 20.3866 6.66007
rfingers 7.12502
rthumb 44.8951 -16.8807
lclavicle -2.38542e-014 1.90833e-014
lhumerus 6.47141 -13.7731 94.3779
lradius 138.639
lwrist -12.3534
lhand 22.2537 40.3698
lfingers 7.12502
lthumb 46.6285 63.1979
rfemur -14.6665 -0.323281 19.8006
rtibia 38.1597
rfoot -23.4775 -12.4664
rtoes -20.426
lfemur -20.4056 -8.48079 -15.5825
ltibia 38.7051
lfoot -19.1197 -5.50115
ltoes -19.8097
2823
root -0.303308 16.7564 -1.20922 0.702557 9.88041 -0.619291
lowerback 10.3609 0.278873 -2.41506
upperback 9.84277 0.229366 1.52983
thorax 4.49569 -0.060986 2.93944
lowerneck -1.10809 -7.02964 -17.8752
upperneck 0.33146 -9.99323 29.3741
head 2.90365 -4.88661 12.2058
rclavicle 5.06901e-015 2.28602e-014
rhumerus -1.867 16.0754 -92.6579
rradius 136.654
rwrist 28.6166
rhand 20.542 6.50663
rfingers 7.12502
rthumb 45.0397 -16.9773
lclavicle 5.06901e-015 2.28602e-014
lhumerus 7.04028 -13.3761 94.2959
lradius 138.626
lwrist -12.401
lhand 22.1842 40.3465
lfingers 7.12502
lthumb 46.5641 63.2024
rfemur -14.5548 0.263256 20.1734
rtibia 37.941
rfoot -23.3975 -11.8994
rtoes -20.0673
lfemur -19.9654 -8.15261 -15.2109
ltibia 38.8108
lfoot -19.4775 -4.61656
ltoes -20.3266
2824
root -0.307134 16.7565 -1.193 0.494976 8.72651 -0.742581
lowerback 10.1154 0.229259 -2.79851
upperback 9.87962 0.150588 1.0982
thorax 4.67702 -0.113555 2.70793
lowerneck -0.864826 -7.15097 -17.8924
upperneck -0.0977435 -10.1266 29.404
head 2.77911 -4.99254 12.2128
rclavicle 4.75841e-015 2.19533e-014
rhumerus -1.52121 16.1285 -92.6305
rradius 136.711
rwrist 28.3939
rhand 20.6812 6.24262
rfingers 7.12502
rthumb 45.1691 -17.19
lclavicle 4.75841e-015 2.19533e-014
lhumerus 7.29182 -13.3254 94.1245
lradius 138.724
lwrist -12.4056
lhand 22.0539 40.59
lfingers 7.12502
lthumb 46.4434 63.4976
rfemur -14.3299 0.690288 20.2963
rtibia 37.7241
rfoot -23.3551 -11.3055
rtoes -19.8574
lfemur -19.4382 -7.99022 -15.1026
ltibia 38.9098
lfoot -19.8029 -3.74951
ltoes -20.2705
2825
root -0.312087 16.7587 -1.17998 0.324093 7.57678 -0.900667
lowerback 9.84208 0.174723 -3.34536
upperback 9.95954 0.0584654 0.774402
thorax 4.92496 -0.188853 2.68122
lowerneck -0.839857 -7.25865 -17.7284
upperneck -0.565223 -10.1951 29.2098
head 2.64088 -5.05126 12.0945
rclavicle -2.83268e-015 2.98177e-015
rhumerus -0.930577 16.1653 -92.4417
rradius 136.712
rwrist 27.9676
rhand 20.5307 6.07761
rfingers 7.12502
rthumb 45.0291 -17.4105
lclavicle -2.83268e-015 2.98177e-015
lhumerus 7.83204 -13.1033 94.0314
lradius 138.783
lwrist -12.3618
lhand 22.0527 40.7237
lfingers 7.12502
lthumb 46.4423 63.6318
rfemur -14.138 1.13823 20.4663
rtibia 37.4481
rfoot -23.2965 -10.6679
rtoes -19.7475
lfemur -18.9886 -7.85151 -14.9525
ltibia 39.0196
lfoot -19.9923 -3.0342
ltoes -19.5174
2826
root -0.316544 16.7622 -1.16522 0.116326 6.44184 -1.29164
lowerback 9.3101 0.0963196 -3.83861
upperback 10.1813 -0.0515986 0.689439
thorax 5.47523 -0.288629 2.87405
lowerneck -0.962384 -7.37839 -17.8437
upperneck -1.05352 -10.2562 28.99
head 2.53662 -5.09637 12.0168
rclavicle 5.06901e-015 0
rhumerus -0.00579925 16.2614 -91.9204
rradius 136.7
rwrist 27.3
rhand 20.5472 6.29553
rfingers 7.12502
rthumb 45.0445 -17.1865
lclavicle 5.06901e-015 0
lhumerus 8.64255 -12.6373 94.2426
lradius 138.775
lwrist -12.3028
lhand 22.5447 40.8966
lfingers 7.12502
lthumb 46.8979 63.6077
rfemur -13.8902 1.57367 20.8909
rtibia 37.1256
rfoot -23.18 -10.034
rtoes -19.8691
lfemur -18.5706 -7.69851 -14.5432
ltibia 39.1929
lfoot -20.1407 -2.50271
ltoes -17.9904
2827
root -0.318376 16.7639 -1.14844 -0.117428 5.33392 -1.83083
lowerback 8.92764 0.0338476 -3.87978
upperback 10.2582 -0.119053 0.505982
thorax 5.77577 -0.327836 2.70603
lowerneck -0.943685 -7.54798 -18.0854
upperneck -1.34802 -10.4563 29.0195
head 2.52049 -5.2126 12.0534
rclavicle 5.96354e-016 7.95139e-015
rhumerus 0.5142 16.1626 -91.6712
rradius 136.693
rwrist 26.9735
rhand 20.5409 6.55626
rfingers 7.12502
rthumb 45.0386 -16.9281
lclavicle 5.96354e-016 7.95139e-015
lhumerus 9.14226 -12.4081 94.4496
lradius 138.746
lwrist -12.2482
lhand 22.9741 40.9562
lfingers 7.12502
lthumb 47.295 63.4914
rfemur -13.5814 1.90254 21.46
rtibia 36.7698
rfoot -23.0753 -9.31357
rtoes -20.4701
lfemur -18.1592 -7.60846 -13.9772
ltibia 39.4704
lfoot -20.5578 -1.78258
ltoes -17.2809
2828
root -0.318633 16.7592 -1.13468 -0.287373 4.23525 -2.41552
lowerback 8.82925 -0.0327411 -3.67015
upperback 10.1443 -0.191858 0.210922
thorax 5.70438 -0.338159 2.2811
lowerneck -0.887073 -7.7042 -18.1481
upperneck -1.53999 -10.6621 29.0129
head 2.51325 -5.32991 12.0423
rclavicle 6.75868e-015 3.97569e-016
rhumerus 0.590141 16.0504 -91.6707
rradius 136.769
rwrist 27.0087
rhand 20.1654 6.56056
rfingers 7.12502
rthumb 44.6891 -17.0604
lclavicle 6.75868e-015 3.97569e-016
lhumerus 9.42038 -12.4407 94.4461
lradius 138.594
lwrist -12.4782
lhand 22.6816 40.646
lfingers 7.12502
lthumb 47.0245 63.3014
rfemur -13.3449 2.14796 22.0795
rtibia 36.4004
rfoot -23.0682 -8.47603
rtoes -20.4759
lfemur -17.8394 -7.5452 -13.3709
ltibia 39.837
lfoot -21.0767 -0.846965
ltoes -17.4805
